HIERARCHY
ROOT Hips
{
 OFFSET 0.000000 0.000000 0.000000
 CHANNELS 6 Xposition Yposition Zposition Yrotation Xrotation Zrotation
 JOINT Chest
 {
  OFFSET 0.000000 9.585900 0.002600
  CHANNELS 3 Yrotation Xrotation Zrotation
  JOINT Chest2
  {
   OFFSET 0.000000 9.601200 -0.005300
   CHANNELS 3 Yrotation Xrotation Zrotation
   JOINT Chest3
   {
    OFFSET 0.000000 9.561800 0.000000
    CHANNELS 3 Yrotation Xrotation Zrotation
    JOINT Chest4
    {
     OFFSET 0.000000 9.552100 0.000000
     CHANNELS 3 Yrotation Xrotation Zrotation
     JOINT Neck
     {
      OFFSET 0.000000 14.453000 0.000000
      CHANNELS 3 Yrotation Xrotation Zrotation
      JOINT Head
      {
       OFFSET 0.000000 8.936500 -0.011300
       CHANNELS 3 Yrotation Xrotation Zrotation
       End Site
       {
        OFFSET 0.000000 17.073600 -0.006000
       }
      }
     }
     JOINT RightCollar
     {
      OFFSET -2.921100 9.558500 0.000000
      CHANNELS 3 Yrotation Xrotation Zrotation
      JOINT RightShoulder
      {
       OFFSET -13.519700 0.000000 0.000000
       CHANNELS 3 Yrotation Xrotation Zrotation
       JOINT RightElbow
       {
        OFFSET 0.000000 -29.696600 0.000000
        CHANNELS 3 Yrotation Xrotation Zrotation
        JOINT RightWrist
        {
         OFFSET 0.000000 -24.004700 0.000000
         CHANNELS 3 Yrotation Xrotation Zrotation
         End Site
         {
          OFFSET 0.000000 -17.728500 0.000000
         }
        }
       }
      }
     }
     JOINT LeftCollar
     {
      OFFSET 2.921100 9.558500 0.000000
      CHANNELS 3 Yrotation Xrotation Zrotation
      JOINT LeftShoulder
      {
       OFFSET 13.519700 0.000000 0.000000
       CHANNELS 3 Yrotation Xrotation Zrotation
       JOINT LeftElbow
       {
        OFFSET 0.000000 -29.696600 0.000000
        CHANNELS 3 Yrotation Xrotation Zrotation
        JOINT LeftWrist
        {
         OFFSET 0.000000 -24.004700 0.000000
         CHANNELS 3 Yrotation Xrotation Zrotation
         End Site
         {
          OFFSET 0.000000 -17.728500 0.000000
         }
        }
       }
      }
     }
    }
   }
  }
 }
 JOINT RightHip
 {
  OFFSET -7.771700 -0.012900 -0.001300
  CHANNELS 3 Yrotation Xrotation Zrotation
  JOINT RightKnee
  {
   OFFSET 0.000000 -40.869800 0.001200
   CHANNELS 3 Yrotation Xrotation Zrotation
   JOINT RightAnkle
   {
    OFFSET 0.000000 -39.717900 0.002100
    CHANNELS 3 Yrotation Xrotation Zrotation
    JOINT RightToe
    {
     OFFSET 0.000000 -4.965400 11.033500
     CHANNELS 3 Yrotation Xrotation Zrotation
     End Site
     {
      OFFSET 0.000000 -1.423100 5.872300
     }
    }
   }
  }
 }
 JOINT LeftHip
 {
  OFFSET 7.771700 -0.012900 -0.001300
  CHANNELS 3 Yrotation Xrotation Zrotation
  JOINT LeftKnee
  {
   OFFSET 0.000000 -40.869800 0.001200
   CHANNELS 3 Yrotation Xrotation Zrotation
   JOINT LeftAnkle
   {
    OFFSET 0.000000 -39.717900 0.002100
    CHANNELS 3 Yrotation Xrotation Zrotation
    JOINT LeftToe
    {
     OFFSET 0.000000 -4.965400 11.033500
     CHANNELS 3 Yrotation Xrotation Zrotation
     End Site
     {
      OFFSET 0.000000 -1.423100 5.872300
     }
    }
   }
  }
 }
}
MOTION
Frames: 16
Frame Time: 0.008333
-56.356133 46.660726 5.202880 177.015604 -32.348117 -2.377679 -0.309538 19.042605 1.442299 -0.035946 2.240320 0.174665 -0.191605 3.674335 0.276999 -0.348113 16.483307 1.223724 0.087758 15.937280 -1.461145 0.768999 -6.167722 -2.794363 1.409483 1.115583 -1.151052 6.106562 -7.234710 -16.625671 -48.033756 -56.111429 96.468388 -1.939789 4.176864 -17.596049 -0.653659 0.133456 1.465479 -5.219974 -3.621823 13.470468 69.076104 -71.025678 -107.933842 -1.061237 10.445627 10.335881 -9.044580 -54.136854 -5.764157 -146.700466 78.340398 -136.783038 -8.719277 -15.370349 -8.041818 0.008256 -0.439171 -0.048858 0.478034 -56.604983 10.332623 -111.490664 81.895264 -116.136650 5.079866 -5.898117 4.702608 0.135105 0.100196 -0.043961
-56.340886 46.667099 5.177034 176.995197 -32.358787 -2.404056 -0.316461 19.047729 1.465519 -0.073781 2.233938 0.171425 -0.195039 3.676728 0.278383 -0.319165 16.485808 1.224144 0.047246 16.000566 -1.423428 0.762806 -6.040887 -2.752122 1.312959 1.126343 -1.141120 6.100769 -7.194682 -16.619370 -48.042698 -56.107915 96.496384 -1.942421 4.154842 -17.605352 -0.707051 0.135320 1.478528 -5.255411 -3.645821 13.488118 69.048974 -71.027206 -107.913092 -1.078810 10.465247 10.309242 -9.058634 -54.133379 -5.729988 -146.813374 78.359864 -136.894953 -8.704209 -15.302029 -8.040226 -0.011417 -0.398759 -0.046001 0.381558 -56.593097 10.402423 -111.775140 81.886241 -116.391749 5.135285 -5.930691 4.681381 0.125588 0.089684 -0.044568
-56.330507 46.669956 5.154880 176.987670 -32.345147 -2.405518 -0.382333 19.027272 1.439736 -0.076511 2.233579 0.171776 -0.160667 3.681306 0.281677 -0.449846 16.472276 1.228021 0.111535 16.072361 -1.424274 0.755651 -5.926356 -2.710290 1.362829 1.153416 -1.175678 6.061259 -7.155947 -16.610595 -48.065664 -56.098005 96.544298 -1.942364 4.128613 -17.612023 -0.643879 0.148077 1.453026 -5.287151 -3.670086 13.504103 69.045009 -71.032407 -107.919746 -1.102263 10.484810 10.280215 -9.046433 -54.154551 -5.736213 -146.930248 78.383104 -137.005921 -8.736133 -15.293423 -8.040684 0.000017 -0.354876 -0.038701 0.335633 -56.607079 10.406219 -112.046196 81.884494 -116.637450 5.217192 -5.938241 4.650476 0.079934 0.060213 -0.064850
-56.316307 46.671961 5.133852 176.923917 -32.339448 -2.401105 -0.445688 19.012051 1.421142 -0.027441 2.237012 0.176028 -0.127228 3.684537 0.282771 -0.532301 16.466738 1.231062 0.132363 16.129818 -1.411477 0.747599 -5.825833 -2.670358 1.422472 1.169478 -1.206156 5.962800 -7.116660 -16.595297 -48.098080 -56.087133 96.606944 -1.943853 4.101029 -17.615052 -0.625432 0.151910 1.441954 -5.318538 -3.696618 13.517086 69.064751 -71.040281 -107.952530 -1.125804 10.507973 10.248782 -9.019961 -54.162557 -5.696561 -147.034755 78.407497 -137.102529 -8.757633 -15.265430 -8.041631 -0.005945 -0.334128 -0.036209 0.315144 -56.617211 10.443477 -112.318374 81.881978 -116.880584 5.278246 -5.964827 4.628009 0.063347 0.050127 -0.068968
-56.304121 46.672054 5.115666 176.869054 -32.330045 -2.395358 -0.484788 18.997322 1.409822 -0.011756 2.237089 0.176440 -0.131732 3.684536 0.283310 -0.504254 16.470101 1.230062 0.090166 16.174348 -1.374824 0.740900 -5.739841 -2.634862 1.336741 1.184958 -1.201673 5.941831 -7.086985 -16.596297 -48.135764 -56.080057 96.679086 -1.947944 4.071712 -17.615867 -0.674562 0.149950 1.456101 -5.347683 -3.727077 13.527694 69.096159 -71.048185 -107.999438 -1.147193 10.533401 10.215529 -8.996023 -54.169350 -5.662041 -147.118697 78.430888 -137.182047 -8.757940 -15.250170 -8.044226 -0.000684 -0.279273 -0.030274 0.309154 -56.631954 10.471174 -112.550030 81.872020 -117.080864 5.304354 -5.988105 4.607456 0.050126 0.042772 -0.068229
-56.293830 46.671057 5.099928 176.818961 -32.324098 -2.389534 -0.512495 18.988140 1.402267 -0.067817 2.234663 0.175027 -0.140333 3.685734 0.284694 -0.417829 16.473245 1.222726 0.046645 16.214750 -1.337926 0.736397 -5.667257 -2.605088 1.252760 1.204553 -1.197095 5.920269 -7.063432 -16.600095 -48.177745 -56.076709 96.756263 -1.954176 4.041689 -17.615564 -0.723423 0.149758 1.470774 -5.372972 -3.760249 13.535641 69.122974 -71.053277 -108.045234 -1.167558 10.557038 10.188768 -8.975910 -54.170373 -5.626676 -147.166819 78.450173 -137.229060 -8.771586 -15.241957 -8.042031 -0.002240 -0.234920 -0.024261 0.314474 -56.641828 10.503513 -112.711756 81.851150 -117.213426 5.300619 -6.009267 4.597400 0.056302 0.038815 -0.068526
-56.287128 46.668712 5.087703 176.781075 -32.315198 -2.379590 -0.554283 18.976904 1.382657 -0.090862 2.235257 0.174674 -0.146391 3.687953 0.286434 -0.420885 16.475284 1.224103 0.049494 16.248305 -1.322908 0.731407 -5.607508 -2.577934 1.246558 1.223810 -1.218846 5.875388 -7.044325 -16.601285 -48.219845 -56.074838 96.834762 -1.961984 4.009205 -17.617938 -0.717534 0.147106 1.464428 -5.398189 -3.791644 13.540796 69.144937 -71.055430 -108.085618 -1.186326 10.577245 10.171999 -8.957857 -54.177240 -5.606715 -147.207292 78.466058 -137.278780 -8.742702 -15.217550 -8.063117 -0.031497 -0.210335 -0.001883 0.319199 -56.656349 10.501560 -112.918998 81.852471 -117.396453 5.331503 -6.026948 4.576092 0.035275 0.032961 -0.062414
-56.284104 46.665870 5.078323 176.762574 -32.308188 -2.369272 -0.614769 18.968691 1.351756 -0.093824 2.236449 0.175670 -0.151174 3.689839 0.287910 -0.517021 16.479424 1.235654 0.112572 16.274882 -1.339079 0.725010 -5.559358 -2.551526 1.359792 1.233788 -1.277338 5.781125 -7.019337 -16.595694 -48.262505 -56.070962 96.914584 -1.969111 3.977668 -17.623835 -0.642139 0.142796 1.428865 -5.424527 -3.816456 13.543588 69.169590 -71.057826 -108.124431 -1.201779 10.592016 10.161911 -8.917272 -54.182917 -5.618646 -147.219218 78.473721 -137.287115 -8.746023 -15.196990 -8.059873 -0.016186 -0.193252 0.004839 0.330818 -56.667310 10.475494 -113.090158 81.855534 -117.544006 5.362666 -6.043080 4.555044 0.026440 0.030111 -0.044542
-56.276745 46.663395 5.071893 176.706236 -32.307667 -2.375668 -0.627468 18.966158 1.361660 -0.096983 2.237053 0.176459 -0.156308 3.690793 0.289204 -0.564751 16.482039 1.240685 0.133812 16.295628 -1.335709 0.720048 -5.519372 -2.527352 1.425060 1.244913 -1.315334 5.691222 -6.996281 -16.592795 -48.306588 -56.064673 96.989913 -1.972313 3.952509 -17.621611 -0.617638 0.142014 1.415037 -5.448684 -3.834796 13.541807 69.197125 -71.060867 -108.164887 -1.215234 10.602945 10.158940 -8.832906 -54.172783 -5.601676 -147.164049 78.466778 -137.186971 -8.748735 -15.179982 -8.064220 0.032712 -0.157149 0.010872 0.315087 -56.674756 10.525716 -113.256895 81.853517 -117.688705 5.394700 -6.056293 4.532777 0.013596 0.025843 -0.047981
-56.270237 46.660910 5.068457 176.646601 -32.306996 -2.385297 -0.632323 18.964037 1.377963 -0.084658 2.236787 0.178160 -0.177370 3.690507 0.289923 -0.589024 16.480774 1.242961 0.134772 16.313552 -1.323608 0.717104 -5.486223 -2.504919 1.339409 1.281959 -1.319221 5.734122 -6.996414 -16.618048 -48.343861 -56.061363 97.049510 -1.971704 3.931983 -17.604095 -0.619462 0.146597 1.412515 -5.471605 -3.848350 13.535140 69.222263 -71.048049 -108.137328 -1.253113 10.619696 10.098264 -8.792769 -54.169134 -5.553795 -147.120551 78.473544 -137.135365 -8.713829 -15.110661 -8.078393 0.010104 -0.168090 0.024455 0.293187 -56.683957 10.588775 -113.407961 81.854280 -117.822562 5.422879 -6.063063 4.514859 0.001453 0.019846 -0.043169
-56.272647 46.657900 5.067527 176.636382 -32.300223 -2.376496 -0.674620 18.957874 1.354414 -0.055897 2.236258 0.180752 -0.195702 3.690149 0.290030 -0.623995 16.478966 1.245267 0.115454 16.325756 -1.304254 0.713369 -5.461652 -2.482402 1.281527 1.307531 -1.321641 5.729216 -6.989191 -16.629985 -48.368371 -56.061701 97.090710 -1.969466 3.916555 -17.579727 -0.644913 0.149572 1.417867 -5.497128 -3.858357 13.525351 69.233287 -71.062333 -108.187185 -1.242966 10.632898 10.143671 -8.736035 -54.176883 -5.580888 -147.089042 78.480211 -137.100141 -8.711378 -15.071425 -8.069341 0.001659 -0.174418 0.029936 0.270648 -56.695325 10.581347 -113.542601 81.874359 -117.964614 5.447539 -6.060675 4.511278 -0.008018 0.014018 -0.045250
-56.272821 46.655829 5.067968 176.605175 -32.301129 -2.376156 -0.658177 18.958421 1.365420 -0.103568 2.236391 0.177706 -0.167223 3.689677 0.291385 -0.613467 16.478724 1.244705 0.056931 16.331517 -1.271508 0.707799 -5.446179 -2.459838 1.211567 1.325173 -1.313603 5.699461 -6.982194 -16.635121 -48.379632 -56.058208 97.116191 -1.967185 3.908500 -17.558786 -0.713698 0.149551 1.436766 -5.526884 -3.866106 13.514675 69.226187 -71.076111 -108.210250 -1.226628 10.646348 10.193763 -8.710151 -54.174618 -5.562841 -147.035341 78.482552 -137.049370 -8.699996 -15.046729 -8.059674 -0.009161 -0.170627 0.027726 0.243970 -56.695518 10.616768 -113.607805 81.872284 -118.026309 5.462442 -6.070561 4.495038 -0.009293 0.018593 -0.037323
-56.272729 46.654372 5.069647 176.576519 -32.305764 -2.383400 -0.686569 18.966067 1.363090 -0.106885 2.235771 0.178230 -0.216492 3.689747 0.289960 -0.657857 16.474307 1.244329 0.115392 16.339368 -1.281703 0.742871 -5.440807 -2.476934 1.274530 1.347309 -1.343744 5.725572 -6.986397 -16.647283 -48.403729 -56.029298 97.094801 -1.964550 3.908271 -17.539022 -0.632805 0.154779 1.409779 -5.583654 -3.871503 13.511429 69.211309 -71.077157 -108.184253 -1.217923 10.664199 10.214878 -8.693875 -54.167003 -5.536033 -147.003557 78.486177 -137.020804 -8.686654 -15.026633 -8.049685 -0.011446 -0.138734 0.015165 0.201918 -56.690128 10.663433 -113.682433 81.873823 -118.085771 5.467726 -6.084899 4.463956 0.000178 0.027025 -0.035536
-56.274989 46.652711 5.073039 176.563415 -32.306128 -2.388388 -0.722473 18.971367 1.354000 -0.110413 2.235239 0.178552 -0.236093 3.687889 0.288976 -0.690120 16.471783 1.242229 0.133492 16.341124 -1.277033 0.717234 -5.436175 -2.436269 1.297748 1.363214 -1.355845 5.674539 -6.974904 -16.650868 -48.391097 -56.015426 97.112445 -1.962966 3.912157 -17.516709 -0.619964 0.158345 1.400462 -5.558778 -3.873948 13.500112 69.168845 -71.081635 -108.183748 -1.206299 10.683796 10.238435 -8.656814 -54.161950 -5.536509 -146.989555 78.490604 -136.993974 -8.694189 -15.019212 -8.048506 -0.017083 -0.132762 0.023550 0.170470 -56.688458 10.694322 -113.702915 81.881330 -118.113679 5.473619 -6.092067 4.467660 -0.000154 0.034319 -0.030725
-56.273917 46.651073 5.078177 176.530805 -32.304127 -2.405542 -0.781503 18.975585 1.348140 -0.105300 2.233456 0.180009 -0.201715 3.686924 0.291628 -0.716249 16.469633 1.238835 0.133339 16.339746 -1.266369 0.732063 -5.434072 -2.432444 1.304441 1.376167 -1.359227 5.630031 -6.963622 -16.651135 -48.366922 -55.998409 97.114580 -1.966977 3.915494 -17.496798 -0.648000 0.163472 1.399516 -5.516574 -3.878358 13.489351 69.117018 -71.081521 -108.168335 -1.191115 10.681933 10.300077 -8.643011 -54.157487 -5.488849 -146.955848 78.499742 -136.951372 -8.687787 -15.004949 -8.054149 -0.019294 -0.115843 0.026025 0.136880 -56.692518 10.757863 -113.738331 81.881890 -118.136084 5.470098 -6.100723 4.450520 0.009086 0.041447 -0.022881
-56.276366 46.648774 5.084835 176.508617 -32.294183 -2.409532 -0.780363 18.967782 1.355812 -0.140086 2.236602 0.177071 -0.195341 3.685204 0.292111 -0.741931 16.467212 1.234222 0.132513 16.335456 -1.256237 0.707495 -5.443669 -2.395419 1.312002 1.388207 -1.361854 5.611921 -6.959170 -16.651296 -48.344953 -55.972516 97.095793 -1.976591 3.918340 -17.486752 -0.651528 0.168720 1.392316 -5.639013 -3.888413 13.497704 69.100549 -71.064470 -108.046669 -1.187421 10.710426 10.308325 -8.611825 -54.170230 -5.457905 -146.896443 78.518330 -136.899478 -8.705739 -14.969682 -8.049986 -0.009152 -0.095891 0.021702 0.107631 -56.701422 10.791788 -113.752536 81.892760 -118.144740 5.463063 -6.104449 4.433897 0.027481 0.048221 -0.016207
